<?xml version="1.0" standalone="no"?><svg xmlns="http://www.w3.org/2000/svg" viewBox="0 0 1440 320"><path fill="#07122A" fill-opacity="1" d="M0,160L40,165.3C80,171,160,181,240,197.3C320,213,400,235,480,218.7C560,203,640,149,720,138.7C800,128,880,160,960,186.7C1040,213,1120,235,1200,240C1280,245,1360,235,1400,229.3L1440,224L1440,320L1400,320C1360,320,1280,320,1200,320C1120,320,1040,320,960,320C880,320,800,320,720,320C640,320,560,320,480,320C400,320,320,320,240,320C160,320,80,320,40,320L0,320Z"></path></svg>